# xmcd
#
# Track frame offsets: 
#        150
#        16950
#        36375
#        53850
#        64049
#        113441
#        128217
#        151897
#        168742
#        195028
#        207106
#
# Disc length: 2965 seconds
#
# Revision: 0
# Processed by: cddbd v1.5.2PL0 Copyright (c) Steve Scherf et al.
# Submitted via: ExactAudioCopy v1.0b1
#
DISCID=890b930b
DTITLE=Various Artist - The Woodstock Experience CD 2
DYEAR=1900
DGENRE=
TTITLE0=America - A Horse With No Name
TTITLE1=John Mayall - Reaching For A Mountain
TTITLE2=John Mayall - Mama Talk To Your Daughter
TTITLE3=Canned Heat - I Got My Eyes On You
TTITLE4=Canned Heat - Sweet Sixteen
TTITLE5=James Brown - I Feel Good
TTITLE6=James Brown - Sex Machine
TTITLE7=Bob Marley - Soul Rebel
TTITLE8=The Moody Blues - Question
TTITLE9=Donovan - To Sing For You
TTITLE10=Cat Stevens - Wild World
EXTD=
EXTT0=
EXTT1=
EXTT2=
EXTT3=
EXTT4=
EXTT5=
EXTT6=
EXTT7=
EXTT8=
EXTT9=
EXTT10=
PLAYORDER=
